PathFileType	3	(X/Y/Z)	dance_move_1__fused_aligned.trc
DataRate	CameraRate	NumFrames	NumMarkers	Units	OrigDataRate	OrigDataStartFrame	OrigNumFrames
100.0	100.0	13	19	mm	100.0	250	890
Frame#	Time	pelvis			neck			head			hip_left			hip_right			knee_left			knee_right			ankle_left			ankle_right			heel_left			heel_right			toe_left			toe_right			shoulder_left			shoulder_right			elbow_left			elbow_right			wrist_left			wrist_right			
		X1	Y1	Z1	X2	Y2	Z2	X3	Y3	Z3	X4	Y4	Z4	X5	Y5	Z5	X6	Y6	Z6	X7	Y7	Z7	X8	Y8	Z8	X9	Y9	Z9	X10	Y10	Z10	X11	Y11	Z11	X12	Y12	Z12	X13	Y13	Z13	X14	Y14	Z14	X15	Y15	Z15	X16	Y16	Z16	X17	Y17	Z17	X18	Y18	Z18	X19	Y19	Z19	
250	2.49000	106.679043	723.553540	106.469291	78.504330	1184.937470	-211.070575	67.425471	1210.834682	-379.794159	30.549451	724.999602	119.019196	182.808613	722.107483	93.919471	-141.813837	474.559705	-159.029368	210.300797	445.070011	-210.276309	-96.378264	140.472366	31.399056	224.494417	100.438461	-31.740754	-81.593910	101.854068	73.585298	225.985703	62.816740	13.570240	-155.535942	70.441636	-129.727245	226.290755	18.092080	-204.019461	-104.991750	1146.112780	-157.659654	261.675900	1136.273282	-191.075723	-131.017609	862.086997	-158.281014	307.318576	860.344231	-215.385217	-70.183681	638.305485	-239.918616	257.728330	637.927792	-311.890496
251	2.50000	104.465744	724.483525	109.363766	76.718688	1185.142149	-208.822200	65.910255	1211.121292	-377.504983	28.466785	725.857595	121.555883	180.464712	723.109459	97.171726	-139.199882	474.198875	-158.502503	207.268838	446.364675	-208.100026	-97.471531	139.925436	32.712114	223.662253	100.891961	-30.093475	-83.384248	101.284041	75.117212	225.409802	63.189987	15.223634	-155.189364	70.028391	-129.061985	225.901283	18.387890	-202.235081	-106.801680	1145.635162	-156.052777	259.958857	1136.684500	-189.106112	-129.644664	861.399263	-156.801615	302.121311	860.686247	-214.635593	-65.827621	638.520629	-237.242215	247.684563	639.944738	-310.859860
252	2.51000	102.252444	725.413510	112.258240	74.933047	1185.346828	-206.573825	64.395039	1211.407902	-375.215808	26.384119	726.715589	124.092570	178.120811	724.111434	100.423982	-136.585926	473.838045	-157.975638	204.236878	447.659339	-205.923743	-98.564797	139.378505	34.025172	222.830090	101.345461	-28.446196	-85.174586	100.714013	76.649126	224.833900	63.563234	16.877028	-154.842787	69.615147	-128.396724	225.511811	18.683700	-200.450702	-108.611609	1145.157545	-154.445900	258.241813	1137.095718	-187.136502	-128.271719	860.711528	-155.322215	296.924046	861.028263	-213.885969	-61.471561	638.735773	-234.565814	237.640795	641.961684	-309.829223
253	2.52000	100.039144	726.343495	115.152715	73.147405	1185.551508	-204.325450	62.879823	1211.694512	-372.926632	24.301453	727.573583	126.629257	175.776909	725.113410	103.676237	-133.971971	473.477216	-157.448773	201.204919	448.954003	-203.747459	-99.658064	138.831575	35.338230	221.997926	101.798961	-26.798917	-86.964924	100.143985	78.181041	224.257998	63.936481	18.530422	-154.496209	69.201903	-127.731464	225.122339	18.979510	-198.666322	-110.421539	1144.679927	-152.839023	256.524770	1137.506936	-185.166892	-126.898774	860.023793	-153.842816	291.726781	861.370279	-213.136345	-57.115500	638.950917	-231.889413	227.597028	643.978629	-308.798587
254	2.53000	97.825844	727.273480	118.047190	71.361764	1185.756187	-202.077075	61.364607	1211.981122	-370.637457	22.218787	728.431577	129.165944	173.433008	726.115385	106.928493	-131.358016	473.116386	-156.921908	198.172959	450.248667	-201.571176	-100.751330	138.284644	36.651288	221.165763	102.252461	-25.151638	-88.755262	99.573957	79.712955	223.682096	64.309729	20.183815	-154.149632	68.788658	-127.066204	224.732867	19.275320	-196.881943	-112.231469	1144.202309	-151.232146	254.807727	1137.918153	-183.197281	-125.525829	859.336058	-152.363417	286.529516	861.712295	-212.386721	-52.759440	639.166062	-229.213012	217.553260	645.995575	-307.767951
255	2.54000	95.612544	728.203465	120.941664	69.576122	1185.960866	-199.828700	59.849392	1212.267732	-368.348281	20.136122	729.289571	131.702631	171.089107	727.117361	110.180748	-128.744061	472.755556	-156.395043	195.141000	451.543331	-199.394893	-101.844597	137.737714	37.964346	220.333599	102.705961	-23.504359	-90.545600	99.003929	81.244869	223.106194	64.682976	21.837209	-153.803054	68.375414	-126.400944	224.343395	19.571131	-195.097563	-114.041399	1143.724691	-149.625269	253.090683	1138.329371	-181.227671	-124.152884	858.648324	-150.884017	281.332251	862.054311	-211.637097	-48.403379	639.381206	-226.536611	207.509493	648.012521	-306.737314
256	2.55000	93.399244	729.133450	123.836139	67.790481	1186.165546	-197.580325	58.334176	1212.554342	-366.059105	18.053456	730.147565	134.239318	168.745205	728.119337	113.433004	-126.130106	472.394727	-155.868178	192.109041	452.837995	-197.218610	-102.937863	137.190784	39.277404	219.501436	103.159461	-21.857080	-92.335938	98.433901	82.776783	222.530292	65.056223	23.490603	-153.456477	67.962170	-125.735684	223.953923	19.866941	-193.313184	-115.851329	1143.247074	-148.018392	251.373640	1138.740589	-179.258061	-122.779940	857.960589	-149.404618	276.134985	862.396328	-210.887474	-44.047319	639.596350	-223.860209	197.465725	650.029466	-305.706678
257	2.56000	91.185945	730.063435	126.730614	66.004839	1186.370225	-195.331950	56.818960	1212.840952	-363.769930	15.970790	731.005558	136.776005	166.401304	729.121312	116.685259	-123.516150	472.033897	-155.341312	189.077081	454.132659	-195.042327	-104.031130	136.643853	40.590463	218.669273	103.612961	-20.209801	-94.126277	97.863873	84.308698	221.954390	65.429470	25.143997	-153.109900	67.548925	-125.070424	223.564451	20.162751	-191.528804	-117.661259	1142.769456	-146.411515	249.656596	1139.151807	-177.288450	-121.406995	857.272854	-147.925218	270.937720	862.738344	-210.137850	-39.691258	639.811494	-221.183808	187.421958	652.046412	-304.676041
258	2.57000	88.972645	730.993420	129.625088	64.219198	1186.574904	-193.083576	55.303744	1213.127562	-361.480754	13.888124	731.863552	139.312692	164.057403	730.123288	119.937515	-120.902195	471.673067	-154.814447	186.045122	455.427323	-192.866043	-105.124396	136.096923	41.903521	217.837109	104.066461	-18.562522	-95.916615	97.293845	85.840612	221.378488	65.802717	26.797391	-152.763322	67.135681	-124.405164	223.174979	20.458561	-189.744425	-119.471188	1142.291838	-144.804639	247.939553	1139.563025	-175.318840	-120.034050	856.585119	-146.445819	265.740455	863.080360	-209.388226	-35.335198	640.026638	-218.507407	177.378191	654.063358	-303.645405
259	2.58000	86.564667	731.412678	131.124582	62.141469	1186.420576	-192.017472	53.300171	1212.990677	-360.309567	11.488856	732.262765	140.452005	161.640701	730.562590	121.797177	-120.185800	471.801956	-155.549681	185.006894	456.594771	-192.389018	-106.935371	136.133043	42.406322	216.929513	104.657725	-18.103608	-98.248884	97.345207	86.544003	220.353608	66.371374	27.300505	-153.708394	67.149836	-124.077467	223.089189	20.809153	-189.195032	-121.578651	1141.538570	-144.381465	245.985193	1139.896153	-174.367474	-119.265903	855.500254	-146.434772	261.616936	862.992958	-209.190662	-31.385950	639.807411	-218.110872	169.062633	655.320150	-303.439419
260	2.59000	84.156690	731.831936	132.624075	60.063741	1186.266247	-190.951368	51.296599	1212.853792	-359.138380	9.089587	732.661979	141.591318	159.224000	731.001893	123.656838	-119.469404	471.930845	-156.284915	183.968667	457.762218	-191.911993	-108.746346	136.169163	42.909124	216.021917	105.248990	-17.644694	-100.581153	97.396570	87.247394	219.328728	66.940030	27.803619	-154.653466	67.163991	-123.749769	223.003400	21.159745	-188.645640	-123.686113	1140.785302	-143.958291	244.030833	1140.229281	-173.416107	-118.497757	854.415389	-146.423726	257.493418	862.905555	-208.993098	-27.436701	639.588185	-217.714338	160.747075	656.576942	-303.233433
261	2.60000	81.748713	732.251195	134.123569	57.986013	1186.111918	-189.885264	49.293026	1212.716908	-357.967194	6.690318	733.061192	142.730631	156.807298	731.441196	125.516500	-118.753009	472.059733	-157.020148	182.930440	458.929666	-191.434967	-110.557320	136.205283	43.411926	215.114321	105.840254	-17.185779	-102.913422	97.447932	87.950784	218.303847	67.508686	28.306733	-155.598538	67.178146	-123.422071	222.917610	21.510337	-188.096248	-125.793575	1140.032034	-143.535117	242.076473	1140.562410	-172.464741	-117.729610	853.330524	-146.412679	253.369899	862.818153	-208.795535	-23.487453	639.368958	-217.317803	152.431518	657.833734	-303.027447
262	2.61000	79.340735	732.670453	135.623062	55.908284	1185.957589	-188.819161	47.289454	1212.580023	-356.796007	4.291050	733.460405	143.869944	154.390597	731.880499	127.376162	-118.036613	472.188622	-157.755382	181.892213	460.097113	-190.957942	-112.368295	136.241403	43.914728	214.206725	106.431519	-16.726865	-105.245691	97.499295	88.654175	217.278967	68.077343	28.809847	-156.543609	67.192301	-123.094374	222.831821	21.860929	-187.546855	-127.901037	1139.278766	-143.111943	240.122113	1140.895538	-171.513375	-116.961464	852.245659	-146.401633	249.246380	862.730751	-208.597971	-19.538205	639.149731	-216.921268	144.115960	659.090525	-302.821461
